<svg xmlns="http://www.w3.org/2000/svg" xmlns:xlink="http://www.w3.org/1999/xlink" viewBox="0 0 605.46 816.87"><defs><style>.cls-1{fill:url(#linear-gradient);}.cls-2{fill:#41484a;}.cls-3{fill:#ababac;}.cls-4{fill:#9b9b9c;}.cls-5{fill:#8c8c8d;}.cls-6{fill:#7c7c7d;}.cls-7{fill:#6d6d6d;}.cls-8{fill:#5d5d5e;}.cls-9{fill:#4e4e4e;}.cls-10{fill:#3e3e3f;}.cls-11{fill:#2f2f2f;}.cls-12{fill:#1f1f1f;}.cls-13{fill:#101010;}.cls-14{fill:url(#linear-gradient-2);}.cls-15{fill:url(#linear-gradient-3);}.cls-16{fill:url(#linear-gradient-4);}.cls-17{fill:url(#linear-gradient-5);}.cls-18{fill:url(#linear-gradient-6);}.cls-19{fill:url(#linear-gradient-7);}.cls-20{fill:url(#linear-gradient-8);}.cls-21{fill:url(#linear-gradient-9);}.cls-22{fill:url(#linear-gradient-10);}.cls-23{fill:url(#linear-gradient-11);}.cls-24{fill:url(#linear-gradient-12);}.cls-25{fill:url(#linear-gradient-13);}.cls-26{fill:url(#linear-gradient-14);}.cls-27{fill:url(#linear-gradient-15);}.cls-28{fill:url(#linear-gradient-16);}.cls-29{fill:url(#linear-gradient-17);}.cls-30{fill:url(#linear-gradient-18);}.cls-31{fill:url(#linear-gradient-19);}.cls-32{fill:url(#linear-gradient-20);}.cls-33{fill:url(#linear-gradient-21);}.cls-34{fill:url(#linear-gradient-22);}.cls-35{fill:url(#linear-gradient-23);}.cls-36{fill:url(#linear-gradient-24);}.cls-37{fill:url(#linear-gradient-25);}.cls-38{fill:url(#linear-gradient-26);}.cls-39{fill:url(#linear-gradient-27);}.cls-40{fill:url(#linear-gradient-28);}.cls-41{fill:url(#linear-gradient-29);}.cls-42{fill:url(#linear-gradient-30);}.cls-43{fill:url(#linear-gradient-31);}.cls-44{fill:url(#linear-gradient-32);}.cls-45{fill:url(#linear-gradient-33);}.cls-46{fill:url(#linear-gradient-34);}.cls-47{fill:url(#linear-gradient-35);}.cls-48{fill:url(#linear-gradient-36);}.cls-49{fill:url(#linear-gradient-37);}.cls-50{fill:url(#linear-gradient-38);}.cls-51{fill:url(#linear-gradient-39);}.cls-52{fill:url(#linear-gradient-40);}.cls-53{fill:url(#linear-gradient-41);}.cls-54{fill:url(#linear-gradient-42);}.cls-55{fill:url(#linear-gradient-43);}.cls-56{fill:url(#linear-gradient-44);}.cls-57{fill:url(#linear-gradient-45);}.cls-58{fill:url(#linear-gradient-46);}.cls-59{fill:url(#linear-gradient-47);}.cls-60{fill:url(#linear-gradient-48);}.cls-61{fill:url(#linear-gradient-49);}.cls-62{fill:url(#linear-gradient-50);}.cls-63{fill:url(#linear-gradient-51);}.cls-64{fill:url(#linear-gradient-52);}.cls-65{fill:url(#linear-gradient-53);}.cls-66{fill:url(#linear-gradient-54);}.cls-67{fill:url(#linear-gradient-55);}.cls-68{fill:url(#linear-gradient-56);}.cls-69{fill:url(#linear-gradient-57);}.cls-70{fill:url(#linear-gradient-58);}.cls-71{fill:url(#linear-gradient-59);}.cls-72{fill:url(#linear-gradient-60);}.cls-73{fill:url(#linear-gradient-61);}.cls-74{fill:url(#linear-gradient-62);}.cls-75{fill:url(#linear-gradient-63);}.cls-76{fill:url(#linear-gradient-64);}.cls-77{fill:url(#linear-gradient-65);}.cls-78{fill:url(#linear-gradient-66);}.cls-79{fill:url(#linear-gradient-67);}.cls-80{fill:url(#linear-gradient-68);}.cls-81{fill:url(#linear-gradient-69);}</style><linearGradient id="linear-gradient" x1="48.51" y1="5.04" x2="591.01" y2="818.79" gradientUnits="userSpaceOnUse"><stop offset="0" stop-color="#f3f3f3"/><stop offset="1" stop-color="#e5e6e6"/></linearGradient><linearGradient id="linear-gradient-2" x1="1140.79" y1="-429.68" x2="1171.3" y2="-431.45" gradientTransform="translate(2467.12 -139.64) rotate(180) scale(2.11)" gradientUnits="userSpaceOnUse"><stop offset="0.01" stop-color="#504c4d"/><stop offset="0.03" stop-color="#464343"/><stop offset="0.09" stop-color="#2d2a2b"/><stop offset="0.17" stop-color="#191718"/><stop offset="0.25" stop-color="#0b0a0a"/><stop offset="0.35" stop-color="#020202"/><stop offset="0.53"/><stop offset="0.59" stop-color="#070606"/><stop offset="0.68" stop-color="#191818"/><stop offset="0.78" stop-color="#383636"/><stop offset="0.89" stop-color="#635e5f"/><stop offset="1" stop-color="#938c8d"/></linearGradient><linearGradient id="linear-gradient-3" x1="1043.7" y1="-482.39" x2="1051.62" y2="-483.33" gradientTransform="matrix(-2.39, -0.15, 0.13, -2.05, 2605.92, -57.14)" gradientUnits="userSpaceOnUse"><stop offset="0.01" stop-color="#938c8d"/><stop offset="0.03" stop-color="#a0999a"/><stop offset="0.08" stop-color="#bdb9b9"/><stop offset="0.14" stop-color="#d5d2d3"/><stop offset="0.2" stop-color="#e8e6e7"/><stop offset="0.28" stop-color="#f5f4f4"/><stop offset="0.37" stop-color="#fdfdfd"/><stop offset="0.53" stop-color="#fff"/><stop offset="0.6" stop-color="#f9f8f8"/><stop offset="0.7" stop-color="#e7e6e6"/><stop offset="0.82" stop-color="#cac7c7"/><stop offset="0.95" stop-color="#a29c9d"/><stop offset="1" stop-color="#938c8d"/></linearGradient><linearGradient id="linear-gradient-4" x1="1141.2" y1="-424.71" x2="1171.38" y2="-426.46" gradientTransform="translate(2467.12 -139.64) rotate(180) scale(2.11)" gradientUnits="userSpaceOnUse"><stop offset="0.01" stop-color="#423f40"/><stop offset="0.07" stop-color="#2c2a2b"/><stop offset="0.14" stop-color="#191818"/><stop offset="0.23" stop-color="#0b0a0a"/><stop offset="0.34" stop-color="#020202"/><stop offset="0.53"/><stop offset="0.59" stop-color="#070606"/><stop offset="0.68" stop-color="#191818"/><stop offset="0.78" stop-color="#383636"/><stop offset="0.89" stop-color="#635e5f"/><stop offset="1" stop-color="#938c8d"/></linearGradient><linearGradient id="linear-gradient-5" x1="1044.34" y1="-478.18" x2="1052.27" y2="-479.12" xlink:href="#linear-gradient-3"/><linearGradient id="linear-gradient-6" x1="1141.07" y1="-410.15" x2="1171.58" y2="-411.93" xlink:href="#linear-gradient-2"/><linearGradient id="linear-gradient-7" x1="1045.05" y1="-462.39" x2="1052.98" y2="-463.32" xlink:href="#linear-gradient-3"/><linearGradient id="linear-gradient-8" x1="1141.48" y1="-405.2" x2="1171.66" y2="-406.96" xlink:href="#linear-gradient-4"/><linearGradient id="linear-gradient-9" x1="1045.7" y1="-458.18" x2="1053.63" y2="-459.12" xlink:href="#linear-gradient-3"/><linearGradient id="linear-gradient-10" x1="1141.01" y1="-390" x2="1171.52" y2="-391.78" xlink:href="#linear-gradient-2"/><linearGradient id="linear-gradient-11" x1="1046.15" y1="-441.72" x2="1054.07" y2="-442.66" xlink:href="#linear-gradient-3"/><linearGradient id="linear-gradient-12" x1="1141.42" y1="-385.04" x2="1171.6" y2="-386.8" xlink:href="#linear-gradient-4"/><linearGradient id="linear-gradient-13" x1="1046.79" y1="-437.52" x2="1054.72" y2="-438.45" xlink:href="#linear-gradient-3"/><linearGradient id="linear-gradient-14" x1="1141.1" y1="-369.85" x2="1171.62" y2="-371.63" xlink:href="#linear-gradient-2"/><linearGradient id="linear-gradient-15" x1="1047.38" y1="-421.06" x2="1055.3" y2="-422" xlink:href="#linear-gradient-3"/><linearGradient id="linear-gradient-16" x1="1141.52" y1="-364.91" x2="1171.69" y2="-366.66" xlink:href="#linear-gradient-4"/><linearGradient id="linear-gradient-17" x1="1048.02" y1="-416.86" x2="1055.95" y2="-417.8" xlink:href="#linear-gradient-3"/><linearGradient id="linear-gradient-18" x1="1141.14" y1="-349.95" x2="1171.65" y2="-351.73" xlink:href="#linear-gradient-2"/><linearGradient id="linear-gradient-19" x1="1048.54" y1="-400.66" x2="1056.46" y2="-401.6" xlink:href="#linear-gradient-3"/><linearGradient id="linear-gradient-20" x1="1141.55" y1="-345" x2="1171.73" y2="-346.75" xlink:href="#linear-gradient-4"/><linearGradient id="linear-gradient-21" x1="1049.18" y1="-396.46" x2="1057.11" y2="-397.4" xlink:href="#linear-gradient-3"/><linearGradient id="linear-gradient-22" x1="1140.98" y1="-308.9" x2="1171.5" y2="-310.68" xlink:href="#linear-gradient-2"/><linearGradient id="linear-gradient-23" x1="1050.74" y1="-358.56" x2="1058.66" y2="-359.5" xlink:href="#linear-gradient-3"/><linearGradient id="linear-gradient-24" x1="1141.4" y1="-303.93" x2="1171.58" y2="-305.68" xlink:href="#linear-gradient-4"/><linearGradient id="linear-gradient-25" x1="1051.39" y1="-354.35" x2="1059.31" y2="-355.29" xlink:href="#linear-gradient-3"/><linearGradient id="linear-gradient-26" x1="1141.08" y1="-288.13" x2="1171.59" y2="-289.9" xlink:href="#linear-gradient-2"/><linearGradient id="linear-gradient-27" x1="1052" y1="-337.26" x2="1059.93" y2="-338.2" xlink:href="#linear-gradient-3"/><linearGradient id="linear-gradient-28" x1="1141.49" y1="-283.18" x2="1171.67" y2="-284.93" xlink:href="#linear-gradient-4"/><linearGradient id="linear-gradient-29" x1="1052.65" y1="-333.06" x2="1060.57" y2="-333.99" xlink:href="#linear-gradient-3"/><linearGradient id="linear-gradient-30" x1="1141.14" y1="-267.35" x2="1171.65" y2="-269.12" xlink:href="#linear-gradient-2"/><linearGradient id="linear-gradient-31" x1="1053.23" y1="-315.96" x2="1061.16" y2="-316.9" xlink:href="#linear-gradient-3"/><linearGradient id="linear-gradient-32" x1="1141.55" y1="-262.41" x2="1171.73" y2="-264.16" xlink:href="#linear-gradient-4"/><linearGradient id="linear-gradient-33" x1="1053.88" y1="-311.76" x2="1061.81" y2="-312.69" xlink:href="#linear-gradient-3"/><linearGradient id="linear-gradient-34" x1="1140.96" y1="-245.95" x2="1171.48" y2="-247.72" xlink:href="#linear-gradient-2"/><linearGradient id="linear-gradient-35" x1="1054.3" y1="-294" x2="1062.22" y2="-294.94" xlink:href="#linear-gradient-3"/><linearGradient id="linear-gradient-36" x1="1141.37" y1="-241.02" x2="1171.55" y2="-242.77" xlink:href="#linear-gradient-4"/><linearGradient id="linear-gradient-37" x1="1054.94" y1="-289.8" x2="1062.87" y2="-290.74" xlink:href="#linear-gradient-3"/><linearGradient id="linear-gradient-38" x1="1140.9" y1="-203.4" x2="1171.42" y2="-205.17" xlink:href="#linear-gradient-2"/><linearGradient id="linear-gradient-39" x1="1056.67" y1="-250.37" x2="1064.59" y2="-251.3" xlink:href="#linear-gradient-3"/><linearGradient id="linear-gradient-40" x1="1141.32" y1="-198.44" x2="1171.49" y2="-200.19" xlink:href="#linear-gradient-4"/><linearGradient id="linear-gradient-41" x1="1057.31" y1="-246.16" x2="1065.24" y2="-247.1" xlink:href="#linear-gradient-3"/><linearGradient id="linear-gradient-42" x1="1140.96" y1="-224.55" x2="1171.48" y2="-226.32" xlink:href="#linear-gradient-2"/><linearGradient id="linear-gradient-43" x1="1055.51" y1="-272.06" x2="1063.44" y2="-273" xlink:href="#linear-gradient-3"/><linearGradient id="linear-gradient-44" x1="1141.38" y1="-219.59" x2="1171.55" y2="-221.35" xlink:href="#linear-gradient-4"/><linearGradient id="linear-gradient-45" x1="1056.16" y1="-267.85" x2="1064.09" y2="-268.79" xlink:href="#linear-gradient-3"/><linearGradient id="linear-gradient-46" x1="1141.14" y1="-181.28" x2="1171.65" y2="-183.05" xlink:href="#linear-gradient-2"/><linearGradient id="linear-gradient-47" x1="1058.13" y1="-227.7" x2="1066.05" y2="-228.64" xlink:href="#linear-gradient-3"/><linearGradient id="linear-gradient-48" x1="1141.55" y1="-176.35" x2="1171.73" y2="-178.1" xlink:href="#linear-gradient-4"/><linearGradient id="linear-gradient-49" x1="1058.78" y1="-223.49" x2="1066.7" y2="-224.43" xlink:href="#linear-gradient-3"/><linearGradient id="linear-gradient-50" x1="1140.96" y1="-159.88" x2="1171.48" y2="-161.65" xlink:href="#linear-gradient-2"/><linearGradient id="linear-gradient-51" x1="1059.19" y1="-205.74" x2="1067.12" y2="-206.68" xlink:href="#linear-gradient-3"/><linearGradient id="linear-gradient-52" x1="1141.38" y1="-154.92" x2="1171.55" y2="-156.67" xlink:href="#linear-gradient-4"/><linearGradient id="linear-gradient-53" x1="1059.84" y1="-201.54" x2="1067.76" y2="-202.48" xlink:href="#linear-gradient-3"/><linearGradient id="linear-gradient-54" x1="1140.9" y1="-117.32" x2="1171.42" y2="-119.1" xlink:href="#linear-gradient-2"/><linearGradient id="linear-gradient-55" x1="1061.56" y1="-162.1" x2="1069.49" y2="-163.04" xlink:href="#linear-gradient-3"/><linearGradient id="linear-gradient-56" x1="1141.32" y1="-112.36" x2="1171.5" y2="-114.12" xlink:href="#linear-gradient-4"/><linearGradient id="linear-gradient-57" x1="1062.21" y1="-157.9" x2="1070.13" y2="-158.84" xlink:href="#linear-gradient-3"/><linearGradient id="linear-gradient-58" x1="1141.27" y1="-95.19" x2="1171.79" y2="-96.96" xlink:href="#linear-gradient-2"/><linearGradient id="linear-gradient-59" x1="1063.15" y1="-139.43" x2="1071.07" y2="-140.37" xlink:href="#linear-gradient-3"/><linearGradient id="linear-gradient-60" x1="1141.68" y1="-90.27" x2="1171.85" y2="-92.03" xlink:href="#linear-gradient-4"/><linearGradient id="linear-gradient-61" x1="1063.79" y1="-135.23" x2="1071.72" y2="-136.16" xlink:href="#linear-gradient-3"/><linearGradient id="linear-gradient-62" x1="1140.96" y1="-138.47" x2="1171.48" y2="-140.25" xlink:href="#linear-gradient-2"/><linearGradient id="linear-gradient-63" x1="1060.41" y1="-183.8" x2="1068.34" y2="-184.74" xlink:href="#linear-gradient-3"/><linearGradient id="linear-gradient-64" x1="1141.38" y1="-133.48" x2="1171.56" y2="-135.23" xlink:href="#linear-gradient-4"/><linearGradient id="linear-gradient-65" x1="1061.06" y1="-179.59" x2="1068.98" y2="-180.53" xlink:href="#linear-gradient-3"/><linearGradient id="linear-gradient-66" x1="1141.13" y1="-329.96" x2="1171.65" y2="-331.74" xlink:href="#linear-gradient-2"/><linearGradient id="linear-gradient-67" x1="1049.68" y1="-380.1" x2="1057.6" y2="-381.04" xlink:href="#linear-gradient-3"/><linearGradient id="linear-gradient-68" x1="1141.54" y1="-325.36" x2="1171.72" y2="-327.11" xlink:href="#linear-gradient-4"/><linearGradient id="linear-gradient-69" x1="1050.31" y1="-376.15" x2="1058.23" y2="-377.09" xlink:href="#linear-gradient-3"/></defs><title>Asset 1</title><g id="Layer_2" data-name="Layer 2"><g id="Ñëîé_1" data-name="Ñëîé 1"><rect class="cls-1" x="29.42" width="576.04" height="816.87"/><path class="cls-2" d="M1.64,557.15c1.16,6.45,32.76,6.91,53.55,1.49a5.27,5.27,0,0,0-.19-4c-13,3.23-52.39,5-50.46,1.49,1.4-1.76,4.1-2.44,7.18-2.8,11.15,1.55,29,.62,42.5-2.9a7.35,7.35,0,0,0-.19-4c-13,3.23-52.39,5-50.46,1.49-.93-6.71,21.38-7.68,25.78-6.89v-3.55c-5.5-1-29.65,2-28.1,11.18.26,1.41,1.95,2.55,4.66,3.41C3.26,553.14,1.8,554.79,1.64,557.15Zm3.6,209.36c1.4-1.87,4.1-2.59,7.18-3,11.15,1.65,29,.66,42.51-3.09a5.87,5.87,0,0,0-.25-3.57c-13,3.43-52.33,4.62-50.4.93-.93-7.14,20.68-8.31,25.08-7.47V746.6c-5.5-1-28.95,2.21-27.4,12,.25,1.51,1.95,2.72,4.65,3.63-2.65,1.08-4.11,2.84-4.27,5.35,1.16,6.87,32.76,7.35,53.55,1.59a6,6,0,0,0-.19-4.23C42.74,768.35,3.3,770.2,5.24,766.51ZM1.64,599.34c1.16,6.87,32.76,7.35,53.55,1.59A5.94,5.94,0,0,0,55,596.7C42,600.14,2.61,602,4.54,598.29c1.4-1.87,4.1-2.59,7.18-3,11.15,1.65,29,.66,42.5-3.09.23-1.62.44-2.68,0-3.78-13,3.43-52.55,4.84-50.62,1.14-.93-7.14,21.38-8.22,25.78-7.38v-3.75c-5.5-1-29.65,2.15-28.1,11.92.26,1.51,1.95,2.72,4.65,3.63C3.26,595.07,1.8,596.84,1.64,599.34Zm54-217.86a6,6,0,0,0-.19-4.23c-13,3.43-52.39,5.28-50.46,1.58,1.39-1.87,4.1-2.6,7.18-3,11.15,1.65,29,.66,42.5-3.09a7.94,7.94,0,0,0-.15-4.12c-13,3.43-52.43,5.18-50.5,1.49-.93-7.14,21-8.26,25.37-7.42V359c-5.5-1-29.24,2.17-27.69,11.94.26,1.51,1.95,2.72,4.65,3.63C3.66,375.62,2.2,377.39,2,379.9,3.21,386.76,34.81,387.25,55.6,381.48ZM6,463.54c-2.65,1.07-4.11,2.84-4.26,5.35,1.16,6.87,32.76,7.36,53.55,1.59a6,6,0,0,0-.19-4.23c-13,3.43-52.39,5.28-50.46,1.58,1.4-1.87,4.1-2.59,7.18-3,11.15,1.65,29,.66,42.5-3.09a7.48,7.48,0,0,0-.1-4c-13,3.43-52.48,5-50.55,1.35C2.78,452,25,450.9,29.35,451.75V448c-5.5-1-29.51,2.13-28,11.9C1.64,461.42,3.34,462.63,6,463.54Zm.19,43.84c-2.65,1.08-4.11,2.84-4.27,5.35,1.16,6.87,32.77,7.35,53.55,1.58a6,6,0,0,0-.19-4.23c-13,3.44-52.39,5.28-50.46,1.58,1.4-1.87,4.1-2.6,7.18-3,11.15,1.65,29,.66,42.5-3.09.23-1.62.4-2.82-.08-3.92-13,3.43-52.51,5-50.57,1.28C3,495.82,25,494.71,29.35,495.55v-3.76c-5.5-1-29.32,2.19-27.77,12C1.84,505.25,3.53,506.47,6.24,507.38ZM4.66,725.31c1.4-1.87,4.1-2.6,7.18-3,11.15,1.65,29,.66,42.5-3.09a5.93,5.93,0,0,0-.27-3.59c-13,3.43-52.32,4.64-50.39.95-.93-7.14,21.26-8.24,25.66-7.4v-3.75c-5.5-1-29.53,2.16-28,11.94.25,1.51,1.95,2.72,4.65,3.63-2.65,1.08-4.11,2.84-4.27,5.35,1.16,6.87,32.76,7.35,53.55,1.58a6,6,0,0,0-.19-4.22C42.16,727.16,2.72,729,4.66,725.31ZM1.79,281.13c.25,1.51,1.95,2.72,4.65,3.63-2.65,1.08-4.11,2.84-4.27,5.35,1.16,6.87,32.76,7.35,53.55,1.59a6,6,0,0,0-.19-4.23c-13,3.43-52.39,5.28-50.46,1.58,1.4-1.87,4.1-2.59,7.18-3,11.15,1.65,29,.66,42.51-3.09a8.31,8.31,0,0,0-.19-4.22c-13,3.43-52.39,5.28-50.46,1.58-.93-7.14,20.84-8.24,25.24-7.39v-3.77C23.85,268.13.25,271.36,1.79,281.13ZM3.57,415.28c-.93-7.14,21.38-8.19,25.78-7.35v-3.72c-5.5-1-29.65,2.09-28.1,11.86.26,1.5,1.95,2.72,4.65,3.63-2.65,1.08-4.11,2.84-4.27,5.35,1.16,6.86,32.76,7.35,53.55,1.58a5.94,5.94,0,0,0-.19-4.23C42,425.85,2.61,427.69,4.54,424c1.4-1.87,4.1-2.59,7.18-3,11.15,1.65,29,.66,42.5-3.09a7.71,7.71,0,0,0-.13-4.05C41.15,417.3,1.64,419,3.57,415.28Zm1.37-81.6c1.39-1.87,4.1-2.6,7.18-3,11.15,1.65,29,.66,42.5-3.09a8.28,8.28,0,0,0-.19-4.22C41.48,326.82,2,328.66,4,325c-.93-7.14,21-8.24,25.37-7.4v-3.75c-5.5-1-29.24,2.17-27.69,11.94.26,1.51,1.95,2.72,4.65,3.63-2.65,1.08-4.11,2.84-4.27,5.35,1.16,6.87,32.76,7.36,53.55,1.59a6,6,0,0,0-.19-4.23C42.45,335.53,3,337.38,4.94,333.68ZM4.6,640.28c1.4-1.87,4.1-2.59,7.18-3,11.15,1.65,29,.66,42.5-3.09.23-1.62.45-2.62,0-3.72-13,3.43-52.57,4.78-50.63,1.08-.93-7.14,21.32-8.22,25.72-7.37V620.4c-5.5-1-29.59,2.18-28,12,.26,1.51,1.95,2.72,4.65,3.63-2.65,1.08-4.11,2.84-4.27,5.35,1.16,6.87,32.76,7.35,53.55,1.59a6,6,0,0,0-.19-4.22C42.1,642.13,2.66,644,4.6,640.28Zm.19,42.52c1.39-1.87,4.09-2.59,7.18-3,11.15,1.65,29,.66,42.5-3.09.23-1.62.47-2.55,0-3.65-13,3.43-52.58,4.71-50.65,1-.93-7.14,21.12-8.19,25.53-7.34V662.9c-5.5-1-29.4,2.2-27.85,12,.25,1.51,1.95,2.72,4.65,3.63-2.65,1.08-4.11,2.84-4.27,5.35,1.16,6.87,32.76,7.35,53.55,1.58a5.94,5.94,0,0,0-.19-4.22C42.29,684.64,2.86,686.49,4.79,682.79Z"/><polygon class="cls-3" points="58.84 776.51 58.49 756.57 46.39 757.5 46.74 776.04 58.84 776.51"/><polygon class="cls-4" points="58.83 776.11 58.49 756.91 46.77 757.8 47.11 775.67 58.83 776.11"/><polygon class="cls-5" points="58.82 775.72 58.49 757.25 47.16 758.11 47.48 775.29 58.82 775.72"/><polygon class="cls-6" points="58.81 775.32 58.49 757.58 47.54 758.41 47.85 774.91 58.81 775.32"/><polygon class="cls-7" points="58.8 774.93 58.49 757.92 47.92 758.71 48.23 774.53 58.8 774.93"/><polygon class="cls-8" points="58.79 774.53 58.5 758.26 48.31 759.01 48.6 774.15 58.79 774.53"/><polygon class="cls-9" points="58.78 774.14 58.5 758.6 48.69 759.32 48.97 773.78 58.78 774.14"/><polygon class="cls-10" points="58.77 773.74 58.5 758.93 49.07 759.62 49.34 773.4 58.77 773.74"/><polygon class="cls-11" points="58.76 773.35 58.5 759.27 49.46 759.92 49.72 773.02 58.76 773.35"/><polygon class="cls-12" points="58.75 772.95 58.5 759.61 49.84 760.23 50.09 772.64 58.75 772.95"/><polygon class="cls-13" points="58.74 772.56 58.5 759.94 50.22 760.53 50.46 772.27 58.74 772.56"/><polygon points="58.73 772.16 58.5 760.28 50.61 760.83 50.83 771.89 58.73 772.16"/><path class="cls-14" d="M55.84,772.37a5.85,5.85,0,0,0-.2-4.23c-13.21,3.44-53.44,5.29-51.47,1.59,1.68-2.22,5.22-2.83,9.07-3.17L6.93,765c-3.58,1-5.53,2.91-5.72,5.82C2.4,777.66,34.63,778.15,55.84,772.37Z"/><path class="cls-15" d="M51.3,771.32c-1.16,1.93-14.75,3.23-19.92,2.65C30.34,773.78,47.49,771.16,51.3,771.32Z"/><path class="cls-16" d="M55.11,764.62a8.18,8.18,0,0,0-.2-4.23C41.7,763.83,1.48,765.68,3.45,762c-.95-7.15,21.42-8.27,25.9-7.43v-3.74c-5.61-1-29.85,2.17-28.27,12C2.26,769.65,33.91,770.4,55.11,764.62Z"/><path class="cls-17" d="M50.31,762.59c-1.16,1.93-14.75,3.23-19.92,2.65C29.35,765.05,46.51,762.44,50.31,762.59Z"/><polygon class="cls-3" points="58.24 735.25 57.9 715.31 45.8 716.24 46.15 734.78 58.24 735.25"/><polygon class="cls-4" points="58.23 734.85 57.9 715.65 46.18 716.54 46.52 734.41 58.23 734.85"/><polygon class="cls-5" points="58.22 734.46 57.9 715.99 46.56 716.85 46.89 734.03 58.22 734.46"/><polygon class="cls-6" points="58.22 734.06 57.9 716.32 46.95 717.15 47.26 733.65 58.22 734.06"/><polygon class="cls-7" points="58.2 733.67 57.9 716.66 47.33 717.45 47.63 733.27 58.2 733.67"/><polygon class="cls-8" points="58.2 733.27 57.9 717 47.71 717.75 48.01 732.89 58.2 733.27"/><polygon class="cls-9" points="58.19 732.88 57.91 717.33 48.1 718.06 48.38 732.52 58.19 732.88"/><polygon class="cls-10" points="58.18 732.48 57.91 717.67 48.48 718.36 48.75 732.14 58.18 732.48"/><polygon class="cls-11" points="58.17 732.09 57.91 718.01 48.87 718.66 49.12 731.76 58.17 732.09"/><polygon class="cls-12" points="58.16 731.69 57.91 718.35 49.25 718.97 49.5 731.38 58.16 731.69"/><polygon class="cls-13" points="58.15 731.3 57.91 718.68 49.63 719.27 49.87 731.01 58.15 731.3"/><polygon points="58.14 730.9 57.91 719.02 50.01 719.57 50.24 730.63 58.14 730.9"/><path class="cls-18" d="M55.24,731.11a5.85,5.85,0,0,0-.2-4.23c-13.21,3.44-53.44,5.29-51.47,1.59,1.68-2.22,5.22-2.83,9.07-3.17l-6.31-1.59c-3.58,1-5.53,2.91-5.72,5.82C1.8,736.4,34,736.89,55.24,731.11Z"/><path class="cls-19" d="M50.71,730.06C49.54,732,36,733.29,30.79,732.7,29.74,732.52,46.9,729.9,50.71,730.06Z"/><path class="cls-20" d="M54.52,723.36a8.18,8.18,0,0,0-.2-4.23c-13.21,3.44-53.44,5.29-51.47,1.59-.95-7.15,22-8.15,26.5-7.31v-3.79c-5.61-1-30.44,2.11-28.86,11.9C1.67,728.39,33.32,729.14,54.52,723.36Z"/><path class="cls-21" d="M29.81,724c5.17.59,18.75-.71,19.92-2.65C45.92,721.17,28.76,723.79,29.81,724Z"/><polygon class="cls-3" points="58.37 692.66 58.02 672.73 45.92 673.66 46.27 692.2 58.37 692.66"/><polygon class="cls-4" points="58.36 692.27 58.02 673.07 46.3 673.96 46.64 691.82 58.36 692.27"/><polygon class="cls-5" points="58.35 691.87 58.02 673.4 46.69 674.26 47.01 691.44 58.35 691.87"/><polygon class="cls-6" points="58.34 691.48 58.02 673.74 47.07 674.57 47.38 691.07 58.34 691.48"/><polygon class="cls-7" points="58.33 691.08 58.03 674.08 47.46 674.87 47.76 690.69 58.33 691.08"/><polygon class="cls-8" points="58.32 690.69 58.03 674.41 47.84 675.17 48.13 690.31 58.32 690.69"/><polygon class="cls-9" points="58.31 690.29 58.03 674.75 48.22 675.48 48.5 689.93 58.31 690.29"/><polygon class="cls-10" points="58.3 689.9 58.03 675.09 48.6 675.78 48.87 689.56 58.3 689.9"/><polygon class="cls-11" points="58.29 689.5 58.03 675.43 48.99 676.08 49.25 689.18 58.29 689.5"/><polygon class="cls-12" points="58.28 689.11 58.03 675.76 49.37 676.38 49.62 688.8 58.28 689.11"/><polygon class="cls-13" points="58.27 688.72 58.03 676.1 49.75 676.69 49.99 688.42 58.27 688.72"/><polygon points="58.26 688.32 58.03 676.44 50.14 676.99 50.36 688.04 58.26 688.32"/><path class="cls-22" d="M55.37,688.53a5.85,5.85,0,0,0-.2-4.23C42,687.74,1.73,689.59,3.7,685.89c1.68-2.22,5.22-2.83,9.07-3.17l-6.31-1.59c-3.58,1-5.53,2.91-5.72,5.82C1.93,693.82,34.16,694.31,55.37,688.53Z"/><path class="cls-23" d="M50.83,687.47c-1.17,1.93-14.75,3.23-19.92,2.65C29.87,689.94,47,687.32,50.83,687.47Z"/><path class="cls-24" d="M54.65,680.78a8.19,8.19,0,0,0-.2-4.23C41.23,680,1,681.84,3,678.14,2,671,24.86,670,29.35,670.82V667C23.74,666-1,669.14.61,678.93,1.79,685.81,33.44,686.56,54.65,680.78Z"/><path class="cls-25" d="M29.93,681.39c5.17.59,18.75-.71,19.92-2.64C46,678.59,28.88,681.21,29.93,681.39Z"/><polygon class="cls-3" points="58.17 650.08 57.82 630.15 45.73 631.07 46.07 649.62 58.17 650.08"/><polygon class="cls-4" points="58.16 649.69 57.83 630.48 46.11 631.38 46.44 649.24 58.16 649.69"/><polygon class="cls-5" points="58.15 649.29 57.83 630.82 46.49 631.68 46.81 648.86 58.15 649.29"/><polygon class="cls-6" points="58.14 648.9 57.83 631.16 46.88 631.98 47.19 648.48 58.14 648.9"/><polygon class="cls-7" points="58.13 648.5 57.83 631.5 47.26 632.29 47.56 648.11 58.13 648.5"/><polygon class="cls-8" points="58.12 648.11 57.83 631.83 47.64 632.59 47.93 647.73 58.12 648.11"/><polygon class="cls-9" points="58.11 647.71 57.83 632.17 48.02 632.89 48.3 647.35 58.11 647.71"/><polygon class="cls-10" points="58.1 647.32 57.83 632.51 48.41 633.2 48.68 646.97 58.1 647.32"/><polygon class="cls-11" points="58.09 646.92 57.83 632.84 48.79 633.5 49.05 646.6 58.09 646.92"/><polygon class="cls-12" points="58.08 646.53 57.84 633.18 49.17 633.8 49.42 646.22 58.08 646.53"/><polygon class="cls-13" points="58.07 646.13 57.84 633.52 49.56 634.11 49.79 645.84 58.07 646.13"/><polygon points="58.06 645.74 57.84 633.86 49.94 634.41 50.17 645.46 58.06 645.74"/><path class="cls-26" d="M55.17,645.95a5.85,5.85,0,0,0-.2-4.23C41.76,645.16,1.53,647,3.5,643.3c1.68-2.22,5.22-2.83,9.07-3.17l-6.31-1.59c-3.58,1-5.53,2.91-5.72,5.82C1.73,651.24,34,651.73,55.17,645.95Z"/><path class="cls-27" d="M50.63,644.89c-1.16,1.93-14.75,3.23-19.92,2.65C29.67,647.36,46.83,644.74,50.63,644.89Z"/><path class="cls-28" d="M54.45,638.2a8.18,8.18,0,0,0-.2-4.23C41,637.41.81,639.26,2.78,635.55c-.95-7.15,22.08-8.16,26.57-7.32v-3.78c-5.61-1-30.52,2.1-28.94,11.89C1.6,643.23,33.24,644,54.45,638.2Z"/><path class="cls-29" d="M49.65,636.16c-1.16,1.93-14.74,3.23-19.92,2.65C28.68,638.63,45.84,636,49.65,636.16Z"/><polygon class="cls-3" points="58.1 608.03 57.75 588.09 45.65 589.02 46 607.56 58.1 608.03"/><polygon class="cls-4" points="58.09 607.63 57.75 588.43 46.04 589.32 46.37 607.19 58.09 607.63"/><polygon class="cls-5" points="58.08 607.24 57.75 588.77 46.42 589.63 46.74 606.81 58.08 607.24"/><polygon class="cls-6" points="58.07 606.84 57.76 589.1 46.8 589.93 47.12 606.43 58.07 606.84"/><polygon class="cls-7" points="58.06 606.45 57.76 589.44 47.19 590.23 47.49 606.05 58.06 606.45"/><polygon class="cls-8" points="58.05 606.05 57.76 589.78 47.57 590.53 47.86 605.67 58.05 606.05"/><polygon class="cls-9" points="58.04 605.66 57.76 590.11 47.95 590.84 48.23 605.3 58.04 605.66"/><polygon class="cls-10" points="58.03 605.26 57.76 590.45 48.34 591.14 48.6 604.92 58.03 605.26"/><polygon class="cls-11" points="58.02 604.87 57.76 590.79 48.72 591.45 48.98 604.54 58.02 604.87"/><polygon class="cls-12" points="58.01 604.47 57.76 591.13 49.1 591.75 49.35 604.16 58.01 604.47"/><polygon class="cls-13" points="58 604.08 57.76 591.46 49.48 592.05 49.72 603.79 58 604.08"/><polygon points="57.99 603.68 57.77 591.8 49.87 592.35 50.09 603.41 57.99 603.68"/><path class="cls-30" d="M55.1,603.9a5.85,5.85,0,0,0-.2-4.23C41.69,603.1,1.46,605,3.43,601.25c1.68-2.21,5.22-2.83,9.07-3.17l-6.31-1.59c-3.58,1-5.53,2.91-5.72,5.82C1.66,609.18,33.89,609.67,55.1,603.9Z"/><path class="cls-31" d="M50.56,602.84c-1.16,1.93-14.75,3.23-19.92,2.64C29.6,605.3,46.75,602.68,50.56,602.84Z"/><path class="cls-32" d="M54.38,596.14a8.18,8.18,0,0,0-.2-4.23C41,595.35.74,597.2,2.71,593.5c-.95-7.15,22.15-8.17,26.64-7.33v-3.79c-5.61-1-30.59,2.13-29,11.91C1.53,601.17,33.17,601.92,54.38,596.14Z"/><path class="cls-33" d="M49.58,594.11c-1.16,1.93-14.75,3.23-19.92,2.65C28.61,596.57,45.77,594,49.58,594.11Z"/><polygon class="cls-3" points="58.42 521.28 58.07 501.34 45.97 502.27 46.32 520.81 58.42 521.28"/><polygon class="cls-4" points="58.41 520.88 58.07 501.68 46.36 502.57 46.69 520.43 58.41 520.88"/><polygon class="cls-5" points="58.4 520.49 58.07 502.01 46.74 502.87 47.06 520.05 58.4 520.49"/><polygon class="cls-6" points="58.39 520.09 58.08 502.35 47.12 503.18 47.44 519.68 58.39 520.09"/><polygon class="cls-7" points="58.38 519.7 58.08 502.69 47.51 503.48 47.81 519.3 58.38 519.7"/><polygon class="cls-8" points="58.37 519.3 58.08 503.03 47.89 503.78 48.18 518.92 58.37 519.3"/><polygon class="cls-9" points="58.36 518.91 58.08 503.36 48.27 504.09 48.55 518.55 58.36 518.91"/><polygon class="cls-10" points="58.35 518.51 58.08 503.7 48.66 504.39 48.92 518.17 58.35 518.51"/><polygon class="cls-11" points="58.34 518.12 58.08 504.04 49.04 504.69 49.3 517.79 58.34 518.12"/><polygon class="cls-12" points="58.33 517.72 58.08 504.38 49.42 505 49.67 517.41 58.33 517.72"/><polygon class="cls-13" points="58.32 517.33 58.09 504.71 49.8 505.3 50.04 517.03 58.32 517.33"/><polygon points="58.31 516.93 58.09 505.05 50.19 505.6 50.41 516.66 58.31 516.93"/><path class="cls-34" d="M55.42,517.14a5.86,5.86,0,0,0-.2-4.23C42,516.35,1.78,518.2,3.75,514.5c1.68-2.22,5.22-2.83,9.07-3.17l-6.31-1.59c-3.58,1-5.53,2.91-5.72,5.82C2,522.43,34.21,522.92,55.42,517.14Z"/><path class="cls-35" d="M50.88,516.09C49.72,518,36.14,519.32,31,518.73,29.92,518.55,47.07,515.93,50.88,516.09Z"/><path class="cls-36" d="M54.7,509.39a8.18,8.18,0,0,0-.2-4.23C41.29,508.6,1.06,510.45,3,506.75c-.95-7.15,21.83-8.12,26.32-7.28v-3.92c-5.61-1-30.27,2.21-28.69,12C1.85,514.42,33.49,515.17,54.7,509.39Z"/><path class="cls-37" d="M49.9,507.36C48.73,509.29,35.15,510.59,30,510,28.93,509.82,46.09,507.2,49.9,507.36Z"/><polygon class="cls-3" points="58.22 477.37 57.88 457.43 45.78 458.36 46.12 476.91 58.22 477.37"/><polygon class="cls-4" points="58.21 476.97 57.88 457.77 46.16 458.66 46.49 476.53 58.21 476.97"/><polygon class="cls-5" points="58.2 476.58 57.88 458.11 46.54 458.97 46.87 476.15 58.2 476.58"/><polygon class="cls-6" points="58.19 476.18 57.88 458.44 46.93 459.27 47.24 475.77 58.19 476.18"/><polygon class="cls-7" points="58.18 475.79 57.88 458.78 47.31 459.57 47.61 475.39 58.18 475.79"/><polygon class="cls-8" points="58.17 475.39 57.88 459.12 47.69 459.88 47.98 475.02 58.17 475.39"/><polygon class="cls-9" points="58.16 475 57.88 459.46 48.08 460.18 48.36 474.64 58.16 475"/><polygon class="cls-10" points="58.15 474.6 57.88 459.79 48.46 460.48 48.73 474.26 58.15 474.6"/><polygon class="cls-11" points="58.14 474.21 57.88 460.13 48.84 460.79 49.1 473.88 58.14 474.21"/><polygon class="cls-12" points="58.13 473.81 57.89 460.47 49.23 461.09 49.47 473.5 58.13 473.81"/><polygon class="cls-13" points="58.13 473.42 57.89 460.81 49.61 461.39 49.84 473.13 58.13 473.42"/><polygon points="58.12 473.02 57.89 461.14 49.99 461.7 50.22 472.75 58.12 473.02"/><path class="cls-38" d="M55.22,473.24A5.85,5.85,0,0,0,55,469c-13.21,3.44-53.44,5.29-51.47,1.58,1.68-2.21,5.22-2.83,9.07-3.17l-6.31-1.59c-3.58,1-5.53,2.91-5.72,5.82C1.78,478.53,34,479,55.22,473.24Z"/><path class="cls-39" d="M50.69,472.18c-1.16,1.93-14.75,3.23-19.92,2.64C29.72,474.64,46.88,472,50.69,472.18Z"/><path class="cls-40" d="M54.5,465.49a8.18,8.18,0,0,0-.2-4.23c-13.21,3.44-53.44,5.29-51.47,1.59-.94-7.15,22-8.16,26.52-7.32v-3.78c-5.61-1-30.46,2.1-28.89,11.89C1.65,470.51,33.29,471.26,54.5,465.49Z"/><path class="cls-41" d="M49.7,463.45c-1.16,1.93-14.75,3.23-19.92,2.65C28.73,465.92,45.89,463.3,49.7,463.45Z"/><polygon class="cls-3" points="58.1 433.47 57.75 413.53 45.65 414.46 46 433 58.1 433.47"/><polygon class="cls-4" points="58.09 433.07 57.75 413.87 46.04 414.76 46.37 432.62 58.09 433.07"/><polygon class="cls-5" points="58.08 432.68 57.75 414.2 46.42 415.06 46.74 432.24 58.08 432.68"/><polygon class="cls-6" points="58.07 432.28 57.76 414.54 46.8 415.37 47.12 431.87 58.07 432.28"/><polygon class="cls-7" points="58.06 431.89 57.76 414.88 47.19 415.67 47.49 431.49 58.06 431.89"/><polygon class="cls-8" points="58.05 431.49 57.76 415.22 47.57 415.97 47.86 431.11 58.05 431.49"/><polygon class="cls-9" points="58.04 431.1 57.76 415.55 47.95 416.28 48.23 430.74 58.04 431.1"/><polygon class="cls-10" points="58.03 430.7 57.76 415.89 48.34 416.58 48.6 430.36 58.03 430.7"/><polygon class="cls-11" points="58.02 430.31 57.76 416.23 48.72 416.88 48.98 429.98 58.02 430.31"/><polygon class="cls-12" points="58.01 429.91 57.76 416.56 49.1 417.19 49.35 429.6 58.01 429.91"/><polygon class="cls-13" points="58 429.52 57.76 416.9 49.48 417.49 49.72 429.22 58 429.52"/><polygon points="57.99 429.12 57.77 417.24 49.87 417.79 50.09 428.85 57.99 429.12"/><path class="cls-42" d="M55.1,429.33a5.86,5.86,0,0,0-.2-4.23c-13.21,3.44-53.44,5.29-51.47,1.59,1.68-2.22,5.22-2.83,9.07-3.17l-6.31-1.59c-3.58,1-5.53,2.91-5.72,5.82C1.66,434.62,33.89,435.11,55.1,429.33Z"/><path class="cls-43" d="M50.56,428.28c-1.16,1.93-14.75,3.23-19.92,2.64C29.6,430.74,46.75,428.12,50.56,428.28Z"/><path class="cls-44" d="M54.38,421.58a8.18,8.18,0,0,0-.2-4.23C41,420.79.74,422.64,2.71,418.94c-.95-7.15,22.15-8.16,26.64-7.32v-3.76c-5.61-1-30.59,2.09-29,11.88C1.53,426.61,33.17,427.36,54.38,421.58Z"/><path class="cls-45" d="M49.58,419.54c-1.16,1.93-14.75,3.23-19.92,2.65C28.61,422,45.77,419.39,49.58,419.54Z"/><polygon class="cls-3" points="58.47 388.24 58.12 368.3 46.02 369.23 46.37 387.77 58.47 388.24"/><polygon class="cls-4" points="58.46 387.84 58.12 368.64 46.41 369.53 46.74 387.4 58.46 387.84"/><polygon class="cls-5" points="58.45 387.45 58.12 368.98 46.79 369.84 47.11 387.02 58.45 387.45"/><polygon class="cls-6" points="58.44 387.05 58.13 369.31 47.17 370.14 47.48 386.64 58.44 387.05"/><polygon class="cls-7" points="58.43 386.66 58.13 369.65 47.55 370.44 47.86 386.26 58.43 386.66"/><polygon class="cls-8" points="58.42 386.26 58.13 369.99 47.94 370.75 48.23 385.88 58.42 386.26"/><polygon class="cls-9" points="58.41 385.87 58.13 370.32 48.32 371.05 48.6 385.51 58.41 385.87"/><polygon class="cls-10" points="58.4 385.47 58.13 370.66 48.7 371.35 48.97 385.13 58.4 385.47"/><polygon class="cls-11" points="58.39 385.08 58.13 371 49.09 371.66 49.35 384.75 58.39 385.08"/><polygon class="cls-12" points="58.38 384.69 58.13 371.34 49.47 371.96 49.72 384.37 58.38 384.69"/><polygon class="cls-13" points="58.37 384.29 58.13 371.67 49.85 372.26 50.09 384 58.37 384.29"/><polygon points="58.36 383.89 58.13 372.01 50.24 372.56 50.46 383.62 58.36 383.89"/><path class="cls-46" d="M55.47,384.11a5.86,5.86,0,0,0-.2-4.23c-13.21,3.44-53.44,5.29-51.47,1.59,1.68-2.22,5.22-2.83,9.07-3.17L6.56,376.7C3,377.7,1,379.61.84,382.52,2,389.39,34.26,389.88,55.47,384.11Z"/><path class="cls-47" d="M50.93,383C49.77,385,36.19,386.28,31,385.69,30,385.51,47.12,382.89,50.93,383Z"/><path class="cls-48" d="M54.74,376.35a8.18,8.18,0,0,0-.2-4.23c-13.21,3.44-53.44,5.29-51.47,1.59-.95-7.15,21.78-8.17,26.27-7.33v-3.67c-5.61-1-30.22,2-28.64,11.8C1.89,381.38,33.54,382.13,54.74,376.35Z"/><path class="cls-49" d="M49.95,374.32C48.78,376.25,35.2,377.55,30,377,29,376.78,46.14,374.17,49.95,374.32Z"/><polygon class="cls-3" points="56.44 298.31 58.24 278.37 46.15 279.3 44.34 297.85 56.44 298.31"/><polygon class="cls-4" points="56.43 297.91 58.24 278.71 46.53 279.61 44.72 297.47 56.43 297.91"/><polygon class="cls-5" points="56.42 297.52 58.24 279.05 46.91 279.91 47.23 297.09 56.42 297.52"/><polygon class="cls-6" points="58.56 297.13 58.25 279.39 47.3 280.21 47.61 296.71 58.56 297.13"/><polygon class="cls-7" points="58.55 296.73 58.25 279.73 47.68 280.51 47.98 296.33 58.55 296.73"/><polygon class="cls-8" points="58.54 296.33 58.25 280.06 48.06 280.82 48.35 295.96 58.54 296.33"/><polygon class="cls-9" points="58.53 295.94 58.25 280.4 48.44 281.12 48.72 295.58 58.53 295.94"/><polygon class="cls-10" points="58.52 295.55 58.25 280.73 48.83 281.43 49.1 295.2 58.52 295.55"/><polygon class="cls-11" points="58.51 295.15 58.25 281.07 49.21 281.73 49.47 294.83 58.51 295.15"/><polygon class="cls-12" points="58.5 294.76 58.26 281.41 49.59 282.03 49.84 294.45 58.5 294.76"/><polygon class="cls-13" points="58.49 294.36 58.26 281.75 49.98 282.33 50.21 294.07 58.49 294.36"/><polygon points="58.48 293.97 58.26 282.08 50.36 282.64 50.59 293.69 58.48 293.97"/><path class="cls-50" d="M55.59,294.18a5.85,5.85,0,0,0-.2-4.23C42.18,293.38,2,295.24,3.92,291.53c1.68-2.21,5.22-2.83,9.07-3.17l-6.31-1.59c-3.58,1-5.53,2.91-5.72,5.82C2.15,299.47,34.39,300,55.59,294.18Z"/><path class="cls-51" d="M51.05,293.12c-1.16,1.93-14.75,3.23-19.92,2.64C30.09,295.58,47.25,293,51.05,293.12Z"/><path class="cls-52" d="M54.87,286.43a8.18,8.18,0,0,0-.2-4.23c-13.21,3.44-53.44,5.29-51.47,1.59-.95-7.15,21.66-8.23,26.15-7.39v-3.73c-5.61-1-30.1,2.13-28.52,11.92C2,291.45,33.66,292.2,54.87,286.43Z"/><path class="cls-53" d="M50.07,284.39c-1.16,1.93-14.75,3.23-19.92,2.65C29.1,286.86,46.26,284.24,50.07,284.39Z"/><polygon class="cls-3" points="58.47 343.01 58.12 323.07 46.02 324 46.37 342.55 58.47 343.01"/><polygon class="cls-4" points="58.46 342.62 58.12 323.41 46.41 324.31 46.74 342.17 58.46 342.62"/><polygon class="cls-5" points="58.45 342.22 58.12 323.75 46.79 324.61 47.11 341.79 58.45 342.22"/><polygon class="cls-6" points="58.44 341.82 58.13 324.08 47.17 324.91 47.48 341.42 58.44 341.82"/><polygon class="cls-7" points="58.43 341.43 58.13 324.42 47.55 325.21 47.86 341.04 58.43 341.43"/><polygon class="cls-8" points="58.42 341.04 58.13 324.76 47.94 325.52 48.23 340.66 58.42 341.04"/><polygon class="cls-9" points="58.41 340.64 58.13 325.1 48.32 325.82 48.6 340.28 58.41 340.64"/><polygon class="cls-10" points="58.4 340.25 58.13 325.44 48.7 326.13 48.97 339.9 58.4 340.25"/><polygon class="cls-11" points="58.39 339.85 58.13 325.77 49.09 326.43 49.35 339.52 58.39 339.85"/><polygon class="cls-12" points="58.38 339.46 58.13 326.11 49.47 326.73 49.72 339.15 58.38 339.46"/><polygon class="cls-13" points="58.37 339.06 58.13 326.45 49.85 327.03 50.09 338.77 58.37 339.06"/><polygon points="58.36 338.67 58.13 326.78 50.24 327.34 50.46 338.39 58.36 338.67"/><path class="cls-54" d="M55.47,338.88a5.86,5.86,0,0,0-.2-4.23c-13.21,3.44-53.44,5.29-51.47,1.59C5.48,334,9,333.4,12.87,333.06l-6.31-1.59C3,332.47,1,334.38.84,337.29,2,344.17,34.26,344.66,55.47,338.88Z"/><path class="cls-55" d="M50.93,337.82c-1.16,1.93-14.75,3.23-19.92,2.64C30,340.29,47.12,337.66,50.93,337.82Z"/><path class="cls-56" d="M54.74,331.13a8.18,8.18,0,0,0-.2-4.23c-13.21,3.44-53.44,5.29-51.47,1.59-.95-7.15,21.78-8.17,26.27-7.33v-3.79c-5.61-1-30.22,2.13-28.64,11.91C1.89,336.15,33.54,336.9,54.74,331.13Z"/><path class="cls-57" d="M49.95,329.09C48.78,331,35.2,332.32,30,331.74,29,331.56,46.14,328.94,49.95,329.09Z"/><path class="cls-2" d="M55.59,199.58a6,6,0,0,0-.19-4.23c-13,3.43-52.39,5.28-50.46,1.58,1.39-1.87,4.1-2.6,7.18-3,11.15,1.65,29,.66,42.5-3.09a8.28,8.28,0,0,0-.19-4.22C41.48,190.07,2,191.92,4,188.22,3,181.08,25,180,29.35,180.81v-3.73c-5.5-1-29.24,2.17-27.7,11.94.26,1.51,1.95,2.72,4.65,3.63C3.66,193.72,2.2,195.48,2,198,3.2,204.86,34.81,205.35,55.59,199.58Z"/><path class="cls-2" d="M1.79,99.23c.25,1.51,1.95,2.72,4.65,3.63-2.65,1.08-4.11,2.84-4.27,5.35,1.16,6.87,32.76,7.35,53.55,1.59a6,6,0,0,0-.19-4.23c-13,3.43-52.39,5.28-50.46,1.58,1.4-1.87,4.1-2.59,7.18-3,11.15,1.65,29,.66,42.51-3.09a8.31,8.31,0,0,0-.19-4.22c-13,3.43-52.39,5.28-50.46,1.58C3.18,91.3,24.95,90,29.35,90.87v-3.6C23.85,86.23.24,89.46,1.79,99.23Z"/><path class="cls-2" d="M3.57,233.38c-.93-7.14,21.38-8.2,25.78-7.36v-3.76c-5.5-1-29.65,2.15-28.1,11.92.26,1.5,1.95,2.72,4.65,3.63-2.65,1.08-4.11,2.84-4.27,5.35C2.8,250,34.4,250.5,55.19,244.74a5.94,5.94,0,0,0-.19-4.23c-13,3.43-52.39,5.28-50.46,1.58,1.4-1.87,4.1-2.59,7.18-3,11.15,1.65,29,.66,42.5-3.09A8.29,8.29,0,0,0,54,231.8C41.08,235.23,1.64,237.08,3.57,233.38Z"/><path class="cls-2" d="M4.94,151.78c1.39-1.87,4.1-2.6,7.18-3,11.15,1.65,29,.66,42.5-3.09a8.28,8.28,0,0,0-.19-4.22C41.48,144.91,2,146.76,4,143.07c-.93-7.14,21-8.24,25.38-7.4v-4.95c-5.5-1-29.24,3.37-27.7,13.14.26,1.51,1.95,2.72,4.65,3.63-2.65,1.08-4.11,2.84-4.27,5.35,1.16,6.87,32.76,7.36,53.55,1.59a6,6,0,0,0-.19-4.23C42.45,153.63,3,155.48,4.94,151.78Z"/><polygon class="cls-3" points="58.09 251.56 57.75 231.63 45.65 232.56 45.99 251.1 58.09 251.56"/><polygon class="cls-4" points="58.08 251.17 57.75 231.97 46.03 232.86 46.37 250.72 58.08 251.17"/><polygon class="cls-5" points="58.07 250.77 57.75 232.3 46.42 233.16 46.74 250.34 58.07 250.77"/><polygon class="cls-6" points="58.07 250.38 57.75 232.64 46.8 233.47 47.11 249.97 58.07 250.38"/><polygon class="cls-7" points="58.06 249.99 57.75 232.98 47.18 233.77 47.48 249.59 58.06 249.99"/><polygon class="cls-8" points="58.05 249.59 57.75 233.31 47.56 234.07 47.86 249.21 58.05 249.59"/><polygon class="cls-9" points="58.04 249.19 57.76 233.65 47.95 234.38 48.23 248.83 58.04 249.19"/><polygon class="cls-10" points="58.03 248.8 57.76 233.99 48.33 234.68 48.6 248.46 58.03 248.8"/><polygon class="cls-11" points="58.02 248.4 57.76 234.33 48.72 234.98 48.97 248.08 58.02 248.4"/><polygon class="cls-12" points="58.01 248.01 57.76 234.66 49.1 235.28 49.35 247.7 58.01 248.01"/><polygon class="cls-13" points="58 247.62 57.76 235 49.48 235.59 49.72 247.32 58 247.62"/><polygon points="57.99 247.22 57.76 235.34 49.87 235.89 50.09 246.94 57.99 247.22"/><path class="cls-58" d="M55.09,247.43a5.86,5.86,0,0,0-.2-4.23c-13.21,3.44-53.44,5.29-51.47,1.59,1.68-2.22,5.22-2.83,9.07-3.17L6.19,240c-3.58,1-5.53,2.91-5.72,5.82C1.65,252.72,33.89,253.21,55.09,247.43Z"/><path class="cls-59" d="M50.56,246.37c-1.16,1.93-14.75,3.23-19.92,2.64C29.59,248.84,46.75,246.22,50.56,246.37Z"/><path class="cls-60" d="M54.37,239.68a8.18,8.18,0,0,0-.2-4.23C41,238.89.73,240.74,2.71,237c-.95-7.15,22.16-8.18,26.65-7.33V226c-5.61-1-30.59,2-29,11.81C1.52,244.71,33.17,245.46,54.37,239.68Z"/><path class="cls-61" d="M49.57,237.64c-1.16,1.93-14.75,3.23-19.92,2.65C28.61,240.11,45.77,237.49,49.57,237.64Z"/><polygon class="cls-3" points="58.46 206.34 58.12 186.4 46.02 187.33 46.37 205.87 58.46 206.34"/><polygon class="cls-4" points="58.45 205.94 58.12 186.74 46.4 187.63 46.74 205.5 58.45 205.94"/><polygon class="cls-5" points="58.44 205.55 58.12 187.08 46.78 187.94 47.11 205.12 58.44 205.55"/><polygon class="cls-6" points="58.44 205.15 58.12 187.41 47.17 188.24 47.48 204.74 58.44 205.15"/><polygon class="cls-7" points="58.42 204.76 58.12 187.75 47.55 188.54 47.85 204.36 58.42 204.76"/><polygon class="cls-8" points="58.41 204.36 58.12 188.09 47.94 188.84 48.23 203.98 58.41 204.36"/><polygon class="cls-9" points="58.41 203.97 58.13 188.42 48.32 189.15 48.6 203.61 58.41 203.97"/><polygon class="cls-10" points="58.4 203.57 58.13 188.76 48.7 189.45 48.97 203.23 58.4 203.57"/><polygon class="cls-11" points="58.39 203.18 58.13 189.1 49.09 189.75 49.34 202.85 58.39 203.18"/><polygon class="cls-12" points="58.38 202.78 58.13 189.44 49.47 190.06 49.72 202.47 58.38 202.78"/><polygon class="cls-13" points="58.37 202.39 58.13 189.77 49.85 190.36 50.09 202.09 58.37 202.39"/><polygon points="58.36 201.99 58.13 190.11 50.23 190.66 50.46 201.72 58.36 201.99"/><path class="cls-62" d="M55.46,202.21a5.86,5.86,0,0,0-.2-4.23c-13.21,3.44-53.44,5.29-51.47,1.59,1.68-2.22,5.22-2.83,9.07-3.17L6.56,194.8C3,195.8,1,197.71.84,200.62,2,207.49,34.26,208,55.46,202.21Z"/><path class="cls-63" d="M50.93,201.15c-1.16,1.93-14.75,3.23-19.92,2.64C30,203.61,47.12,201,50.93,201.15Z"/><path class="cls-64" d="M54.74,194.45a8.18,8.18,0,0,0-.2-4.23c-13.21,3.44-53.44,5.29-51.47,1.59-.95-7.15,21.79-8.17,26.28-7.33V180.7c-5.61-1-30.22,2.12-28.64,11.9C1.89,199.48,33.54,200.23,54.74,194.45Z"/><path class="cls-65" d="M49.94,192.42c-1.17,1.93-14.75,3.23-19.92,2.65C29,194.88,46.14,192.26,49.94,192.42Z"/><polygon class="cls-3" points="56.44 116.41 58.24 96.47 46.14 97.4 44.34 115.94 56.44 116.41"/><polygon class="cls-4" points="56.43 116.01 58.24 96.81 46.52 97.7 44.72 115.57 56.43 116.01"/><polygon class="cls-5" points="56.42 115.62 58.24 97.15 46.91 98.01 47.23 115.19 56.42 115.62"/><polygon class="cls-6" points="58.56 115.22 58.24 97.48 47.29 98.31 47.6 114.81 58.56 115.22"/><polygon class="cls-7" points="58.55 114.83 58.25 97.82 47.67 98.61 47.98 114.43 58.55 114.83"/><polygon class="cls-8" points="58.54 114.43 58.25 98.16 48.06 98.92 48.35 114.06 58.54 114.43"/><polygon class="cls-9" points="58.53 114.04 58.25 98.5 48.44 99.22 48.72 113.68 58.53 114.04"/><polygon class="cls-10" points="58.52 113.64 58.25 98.83 48.82 99.52 49.09 113.3 58.52 113.64"/><polygon class="cls-11" points="58.51 113.25 58.25 99.17 49.21 99.83 49.47 112.92 58.51 113.25"/><polygon class="cls-12" points="58.5 112.86 58.25 99.51 49.59 100.13 49.84 112.55 58.5 112.86"/><polygon class="cls-13" points="58.49 112.46 58.25 99.84 49.97 100.43 50.21 112.17 58.49 112.46"/><polygon points="58.48 112.07 58.26 100.18 50.36 100.74 50.58 111.79 58.48 112.07"/><path class="cls-66" d="M55.59,112.28a5.85,5.85,0,0,0-.2-4.23c-13.21,3.44-53.44,5.29-51.47,1.58,1.68-2.21,5.22-2.83,9.07-3.17l-6.31-1.59c-3.58,1-5.53,2.91-5.72,5.82C2.15,117.57,34.38,118.05,55.59,112.28Z"/><path class="cls-67" d="M51.05,111.22c-1.16,1.93-14.75,3.23-19.92,2.64C30.09,113.68,47.24,111.06,51.05,111.22Z"/><path class="cls-68" d="M54.87,104.53a8.18,8.18,0,0,0-.2-4.23c-13.21,3.44-53.44,5.29-51.47,1.59-.95-7.15,21.66-8.26,26.15-7.41V90.76c-5.61-1-30.1,2.13-28.52,11.91C2,109.55,33.66,110.3,54.87,104.53Z"/><path class="cls-69" d="M50.07,102.49c-1.16,1.93-14.75,3.23-19.92,2.65C29.1,105,46.26,102.34,50.07,102.49Z"/><path class="cls-2" d="M1,52.45C1.26,54,3,55.17,5.66,56.08,3,57.16,1.55,58.92,1.4,61.43,2.55,68.29,34.16,68.78,54.95,63a6,6,0,0,0-.19-4.23c-13,3.43-52.39,5.28-50.46,1.58,1.4-1.87,4.1-2.59,7.18-3C22.62,59,40.46,58,54,54.3a8.31,8.31,0,0,0-.19-4.22c-13,3.43-52.39,5.28-50.46,1.58-.93-7.14,21.62-8,26-7.17V40.55C23.85,39.5-.54,42.68,1,52.45Z"/><polygon class="cls-3" points="55.66 69.63 57.46 49.69 45.36 50.62 43.56 69.17 55.66 69.63"/><polygon class="cls-4" points="55.65 69.23 57.46 50.03 45.74 50.92 43.93 68.79 55.65 69.23"/><polygon class="cls-5" points="55.64 68.84 57.46 50.37 46.13 51.23 46.45 68.41 55.64 68.84"/><polygon class="cls-6" points="57.78 68.44 57.46 50.7 46.51 51.53 46.82 68.03 57.78 68.44"/><polygon class="cls-7" points="57.77 68.05 57.47 51.04 46.89 51.83 47.2 67.66 57.77 68.05"/><polygon class="cls-8" points="57.76 67.66 57.47 51.38 47.28 52.14 47.57 67.28 57.76 67.66"/><polygon class="cls-9" points="57.75 67.26 57.47 51.72 47.66 52.44 47.94 66.9 57.75 67.26"/><polygon class="cls-10" points="57.74 66.86 57.47 52.05 48.04 52.74 48.31 66.52 57.74 66.86"/><polygon class="cls-11" points="57.73 66.47 57.47 52.39 48.43 53.05 48.68 66.14 57.73 66.47"/><polygon class="cls-12" points="57.72 66.08 57.47 52.73 48.81 53.35 49.06 65.77 57.72 66.08"/><polygon class="cls-13" points="57.71 65.68 57.47 53.06 49.19 53.65 49.43 65.39 57.71 65.68"/><polygon points="57.7 65.29 57.47 53.4 49.58 53.96 49.8 65.01 57.7 65.29"/><path class="cls-70" d="M54.81,65.5a5.85,5.85,0,0,0-.2-4.23C41.4,64.7,1.17,66.56,3.14,62.85c1.68-2.21,5.22-2.83,9.07-3.17L5.9,58.09C2.32,59.09.37,61,.18,63.91,1.36,70.79,33.6,71.28,54.81,65.5Z"/><path class="cls-71" d="M50.27,64.44c-1.16,1.93-14.75,3.23-19.92,2.64C29.3,66.9,46.46,64.28,50.27,64.44Z"/><path class="cls-72" d="M54.1,57.75a8.18,8.18,0,0,0-.2-4.23C40.69,57,.47,58.81,2.44,55.1,1.49,48,24.86,46.92,29.35,47.76V44.16c-5.61-1-30.86,2-29.28,11.74C1.25,62.77,32.9,63.52,54.1,57.75Z"/><path class="cls-73" d="M49.28,55.71c-1.16,1.93-14.75,3.23-19.92,2.65C28.32,58.17,45.48,55.56,49.28,55.71Z"/><polygon class="cls-3" points="58.46 161.11 58.12 141.17 46.02 142.1 46.37 160.65 58.46 161.11"/><polygon class="cls-4" points="58.45 160.71 58.12 141.51 46.4 142.41 46.74 160.27 58.45 160.71"/><polygon class="cls-5" points="58.44 160.32 58.12 141.85 46.78 142.71 47.11 159.89 58.44 160.32"/><polygon class="cls-6" points="58.44 159.92 58.12 142.18 47.17 143.01 47.48 159.51 58.44 159.92"/><polygon class="cls-7" points="58.42 159.53 58.12 142.52 47.55 143.31 47.85 159.13 58.42 159.53"/><polygon class="cls-8" points="58.41 159.13 58.12 142.86 47.94 143.62 48.23 158.76 58.41 159.13"/><polygon class="cls-9" points="58.41 158.74 58.13 143.19 48.32 143.92 48.6 158.38 58.41 158.74"/><polygon class="cls-10" points="58.4 158.34 58.13 143.53 48.7 144.22 48.97 158 58.4 158.34"/><polygon class="cls-11" points="58.39 157.95 58.13 143.87 49.09 144.53 49.34 157.62 58.39 157.95"/><polygon class="cls-12" points="58.38 157.56 58.13 144.21 49.47 144.83 49.72 157.25 58.38 157.56"/><polygon class="cls-13" points="58.37 157.16 58.13 144.55 49.85 145.13 50.09 156.87 58.37 157.16"/><polygon points="58.36 156.77 58.13 144.88 50.23 145.44 50.46 156.49 58.36 156.77"/><path class="cls-74" d="M55.46,157a5.86,5.86,0,0,0-.2-4.23C42.05,156.18,1.83,158,3.8,154.33c1.68-2.22,5.22-2.83,9.07-3.17l-6.31-1.59C3,150.57,1,152.48.84,155.39,2,162.27,34.26,162.75,55.46,157Z"/><path class="cls-75" d="M50.93,155.92c-1.16,1.93-14.75,3.23-19.92,2.64C30,158.38,47.12,155.76,50.93,155.92Z"/><path class="cls-76" d="M54.74,149.23a8.18,8.18,0,0,0-.2-4.23c-13.21,3.44-53.44,5.29-51.47,1.59-.95-7.15,21.79-8.17,26.28-7.33v-4c-5.61-1-30.22,2.31-28.64,12.09C1.89,154.25,33.54,155,54.74,149.23Z"/><path class="cls-77" d="M49.94,147.19c-1.17,1.93-14.75,3.23-19.92,2.65C29,149.66,46.14,147,49.94,147.19Z"/><polygon class="cls-3" points="58.1 565.45 57.75 544.32 45.65 545.3 46 564.95 58.1 565.45"/><polygon class="cls-4" points="58.09 565.03 57.75 544.68 46.04 545.62 46.37 564.55 58.09 565.03"/><polygon class="cls-5" points="58.08 564.61 57.75 545.03 46.42 545.95 46.74 564.15 58.08 564.61"/><polygon class="cls-6" points="58.07 564.19 57.76 545.39 46.8 546.27 47.12 563.75 58.07 564.19"/><polygon class="cls-7" points="58.06 563.77 57.76 545.75 47.19 546.59 47.49 563.35 58.06 563.77"/><polygon class="cls-8" points="58.05 563.35 57.76 546.11 47.57 546.91 47.86 562.95 58.05 563.35"/><polygon class="cls-9" points="58.04 562.93 57.76 546.46 47.95 547.23 48.23 562.55 58.04 562.93"/><polygon class="cls-10" points="58.03 562.52 57.76 546.82 48.34 547.55 48.6 562.15 58.03 562.52"/><polygon class="cls-11" points="58.02 562.1 57.76 547.18 48.72 547.87 48.98 561.75 58.02 562.1"/><polygon class="cls-12" points="58.01 561.68 57.76 547.53 49.1 548.19 49.35 561.35 58.01 561.68"/><polygon class="cls-13" points="58 561.26 57.76 547.89 49.48 548.51 49.72 560.95 58 561.26"/><polygon points="57.99 560.84 57.77 548.25 49.87 548.84 50.09 560.55 57.99 560.84"/><path class="cls-78" d="M55.1,561.54a5.2,5.2,0,0,0-.2-4c-13.21,3.23-53.44,5-51.47,1.49,1.68-2.08,5.22-2.66,9.07-3l-6.31-1.49C2.62,555.52.66,557.31.47,560,1.66,566.51,33.89,567,55.1,561.54Z"/><path class="cls-79" d="M50.56,560.55c-1.16,1.82-14.75,3-19.92,2.48C29.6,562.86,46.75,560.4,50.56,560.55Z"/><path class="cls-80" d="M54.38,554.32a7.24,7.24,0,0,0-.2-4c-13.21,3.23-53.44,5-51.47,1.49-.95-6.72,22.15-7.71,26.64-6.91V541.4c-5.61-1-30.59,2-29,11.18C1.53,559,33.17,559.75,54.38,554.32Z"/><path class="cls-81" d="M49.58,552.34c-1.16,1.82-14.75,3-19.92,2.49C28.61,554.66,45.77,552.2,49.58,552.34Z"/></g></g></svg>